<?xml version="1.0" encoding="UTF-8" standalone="no"?>
<!-- Created for MapSVG plugin: http://mapsvg.com -->
<svg
        xmlns:mapsvg="http://mapsvg.com"
        xmlns:dc="http://purl.org/dc/elements/1.1/"
        xmlns:rdf="http://www.w3.org/1999/02/22-rdf-syntax-ns#"
        xmlns:svg="http://www.w3.org/2000/svg"
        xmlns="http://www.w3.org/2000/svg"
        viewBox="0 0 1224.3984 783.07391"
        width="700px"
>

    <path
            d="m 674.70453,276.70045 2.7,-1.86 3.8,-3.28 3.59,5.02 -0.19,5.22 0,0 -4.4,-2.29 -0.48,-2.13 -0.43,-0.28 -0.35,0.16 -0.49,-0.35 -1.64,0.75 -0.7,-0.55 -0.43,0.24 -0.11,-0.55 -0.65,0.28 -0.22,-0.38 z m -62.22,-195.19 0.86,-0.28 2.32,-2.59 2.38,-0.12 2.83,-1.16 0.87,0.28 0.92,1.92 0.46,0.28 3.13,-0.8 1.94,0.12 1.7,0.64 1.86,1.36 0.19,1.12 -0.76,3.55 0.78,2.03 1.08,1.12 2.32,1.04 2.73,3.43 1.78,1.28 1.35,0.4 7.53,0.32 6.31,1.6 0.59,-0.36 0.46,-1.79 0.86,-1.12 1.27,-1 1.02,-0.2 5.67,3.19 0,0 -0.46,3.75 -0.62,1.56 0.19,3.55 -1.62,0.4 -1.62,2.87 0.3,1 -0.86,0.8 -1.67,0.72 0.19,1.31 -0.81,1.03 -2.13,-1.19 -0.81,0.88 -0.24,3.03 -0.81,2.31 -2.08,1.08 -2.32,0.04 0.03,0.96 -0.76,0.8 -0.32,1.51 0.08,0.52 0.97,0.44 -0.92,0.8 0.95,1.83 0,2.71 0.51,2.03 2.56,-0.16 0.19,0.32 -0.13,2.15 0.48,1.51 -1,0.48 -1,0.04 -0.43,1.39 0.81,0.48 0.16,0.96 0.92,0.92 0.14,0.68 0.67,0.44 0.49,-0.28 0.24,0.2 0.16,0.95 1.38,0.16 0.92,1.75 -0.84,0.68 -0.67,0.12 -0.38,1.27 0.27,1.95 0.48,0.28 0.03,0.91 0.3,0.36 -0.11,0.52 -0.68,1.03 -2.19,0.04 0.11,0.84 0.92,0.64 2.4,0.4 0.59,3.82 -0.89,1.07 -0.62,-0.44 -0.32,0.44 0.43,0.44 -0.97,1.91 0.54,1.11 -0.21,1.39 -1.51,0.91 -0.27,0.72 1.02,-0.04 0.92,1.35 0.4,1.31 2.65,1.31 0.65,5.09 0.38,0.75 0.76,0.44 0.03,1.27 1.89,0.44 0.03,0.87 -0.48,1.11 0.38,1.27 0.06,2.15 0.43,0.68 -0.62,0.95 -0.73,2.42 0.89,2.02 0.7,0.36 0.57,0.91 1.16,0.48 0,1.23 -1.05,2.3 0.3,0.79 0.46,0.08 0.38,0.52 3.7,-0.91 1.38,0.6 0.54,-0.63 1.11,-0.2 0.38,-0.6 1.84,-0.71 0.35,-1.11 1.08,0.04 -1.54,2.82 -0.16,1.43 -0.94,1.23 -1.22,0.79 0.08,0.75 -1.32,0.32 -1.13,1.59 -0.03,1.07 -0.94,0.48 0.54,1.11 -0.41,1.47 -2.27,1.39 -1.19,1.47 -3.27,0.87 -0.13,0.4 -1.59,0.95 -1.08,-0.95 -0.67,-0.08 -0.65,0.32 0.92,1.71 0.62,2.94 2.02,2.06 0.06,1.15 -0.54,1.74 1.14,2.18 -0.54,2.06 1.73,2.14 0,0 0.59,1.23 -1.22,2.26 -0.11,1.47 -2.54,2.77 -0.59,1.74 0.54,2.69 1.16,1.78 -0.19,2.34 0.4,2.67 0.92,2.34 -0.11,0.87 -1.08,1.78 -0.21,0.99 0.4,3.56 0.24,0.44 1.51,0.36 0.76,0.55 1.11,3.84 0,2.26 -0.89,1.94 0.68,2.06 0.11,1.5 -0.76,1.7 0,0 -1.56,1.07 -0.84,-0.24 -1.51,0.16 -0.4,-0.47 -0.68,0.32 -0.7,-0.51 -5.18,-1.42 -2.67,-1.07 -0.27,-2.65 -0.68,-0.32 -0.05,-1.19 -2.56,-3.16 0.06,-0.67 -0.62,-0.51 0.24,-0.36 -0.94,-1.66 -0.78,-0.39 -0.57,-1.5 -0.19,-4.35 -2.13,-3.6 0,-1.67 -0.65,-1.58 0.16,-0.99 -0.62,-2.06 -0.38,-0.51 -1.32,-0.24 -0.19,-0.35 0.43,-2.26 -1.02,-1.31 -0.78,-4.44 0.38,-1.23 -0.89,-2.3 -1.92,-2.85 -0.38,0.36 -0.78,-0.59 -1.19,-2.38 -0.05,-1.31 -0.46,-1.11 1.38,-2.54 -1.43,-0.48 -1.57,-2.06 -2.37,-1.27 -0.22,-0.4 -1.94,0.56 -0.3,-0.99 -2.4,0.2 -0.49,-1.59 -2.4,0.2 -0.51,1.9 -1.13,0.16 0,0.52 -0.65,0.6 0.11,0.79 -0.32,0.2 0,0.44 0.24,0.91 -1.7,0.04 -1.7,-0.56 -0.46,0.16 -2.19,8.36 -3.35,2.18 -0.76,1.7 0.27,1.59 -0.32,0.99 -0.35,-0.08 0,2.46 0.46,0.2 -0.14,1.51 -2.99,-0.32 -0.05,0.59 -2,1.11 -1.35,-0.12 -0.97,0.4 -0.89,-2.22 -0.65,-0.63 -0.65,0.4 -0.54,-0.51 -0.4,0.16 -1.54,-1.39 0.05,-2.02 -1.19,-0.28 0.05,-0.67 3.18,-0.56 0.65,-0.44 0.97,0.75 0.49,-0.12 -0.67,-4.87 -2.21,1.11 -7.72,1.23 -1.32,0.48 -0.08,0.67 -1.32,0.83 -1.81,-0.83 -2.81,-0.36 -0.84,-1.82 0.03,-1.43 -1.78,-2.81 -2.67,-1.19 -2.91,1.23 -0.4,0.99 -0.84,0.2 -0.32,0.79 -2.16,0 -0.81,-0.63 -1.27,0.36 0.19,1.31 1.59,2.06 -0.59,0.4 -2.51,0.87 -0.54,-0.28 -5.34,0.95 -0.43,0.59 -3.48,-1.43 0.19,-5.98 -3.05,-4.28 -0.32,-1.94 -2.4,-2.54 -2.62,2.26 -3.29,0.56 -0.51,-0.67 -4.29,-0.36 -1.4,0.91 0.27,2.34 2.7,6.06 -7.53,6.98 -3.27,-0.83 -2.94,-2.54 -3.59,0.48 -5.67,1.47 -2.91,0.99 -2.78,1.47 -2.37,-0.36 -1.19,-0.67 -1,0.04 -0.35,-0.63 -1.32,-0.79 0,0 -1.08,-4.56 -0.46,-0.4 0.4,-0.59 0.35,-1.66 -0.46,-3.61 0,0 0,0 0,0 1.46,-0.48 2.4,-2.5 0.68,-1.31 0.3,-2.06 2.16,-3.69 2.43,-6.03 1.94,-0.95 0.78,-0.79 1.59,-0.32 2.19,0.44 0.76,-0.12 0.54,-1.59 1.59,-1.63 0,-3.33 1.81,-3.29 1.08,-1.31 -0.08,-1.39 3.43,3.53 7.53,0.64 0.24,0.91 -0.46,4.37 0.76,0.79 6.5,-1.98 0.51,-0.99 1.84,-1.27 0.51,-0.24 0.32,0.28 0.65,-0.56 0.81,-1.51 1.35,-0.24 2.54,-1.39 0.38,-0.95 -0.67,-1.59 -0.03,-0.91 2,-1.71 0.35,-1.98 -0.54,-0.87 1.54,-1.47 1,-1.47 0.94,-0.32 0.59,-1.43 0.24,0 0.35,-1.91 -0.19,-0.99 0.78,-2.46 -0.08,-1.43 -1,-3.97 -1.65,-0.08 -0.08,0.68 -1.7,-0.79 0.19,-3.42 -1.48,-1.91 -3.43,-0.36 -1.22,-0.52 -0.46,-0.99 -1.43,-0.2 -0.89,0.24 -2.19,-2.19 -2.91,-1.35 0,0 0,0 0,0 5.4,-2.35 0.32,0.04 0.19,2.19 0.41,0 0.49,-2.74 -0.65,-0.72 0.35,-0.48 -0.78,-2.19 0.14,-1.87 -1,-2.39 -1.35,-1.31 0.32,-0.76 -0.35,-1.75 -2,-1.63 -1.73,1.47 -0.22,1.35 -1.21,0 0,0 0,0 0,0 0.46,-1.35 -0.73,-0.28 -1.24,-1.15 -0.54,-0.36 -2.13,0.32 1.11,-4.62 0.22,-4.3 -1.83,1 -3.08,0.16 -2.16,-0.08 -2.19,-0.83 -1.46,-0.12 -0.35,-0.76 -0.14,-2.07 -1.27,-1.83 -0.27,-1.71 -0.86,-0.44 -0.38,-1.55 -2.54,-0.96 -1.48,-1.91 -0.35,-0.16 -0.46,0.32 0.05,-4.02 -1.24,0.6 -0.38,0.84 -1.54,0 0.14,-0.95 -0.54,-1.87 -1.38,-2.63 -0.84,-0.48 -0.51,-0.24 -0.54,0.16 -1.19,0.84 -1.97,-0.8 -1.59,0.28 0.54,0.92 -0.13,0.48 -0.3,0.04 0,3.86 -0.3,1.24 -0.65,1.03 -2.1,2.51 -2.43,2.23 -1.59,2.19 -1.11,0 -1.24,-0.68 -0.24,0.32 0.24,0.72 -0.27,0.32 -0.7,-0.32 -0.51,0.16 -0.86,1.03 -0.7,-0.12 0.97,-1.43 0.51,-1.47 -0.05,-1.15 -0.81,-0.84 0.11,-2.03 -0.3,-1.27 0.59,-1.15 -0.11,-0.68 -1,-0.72 -1.27,0.04 -6.34,-2.19 -0.7,0.28 -1.48,-0.04 -2.51,-0.96 -0.48,-2.19 -1.56,0.44 -1.19,-0.48 -0.51,0.08 -0.81,-1.35 -1,0.32 -1.38,-0.28 -0.32,-1.04 0,0 1.62,-0.84 3.99,0.12 2.89,-0.68 1.35,-0.52 1.97,-1.43 4.08,-1.47 2.27,-0.32 3.62,-1.79 1.16,-2.39 3,-2.27 1.48,-5.9 0.62,-1.16 0.76,-0.4 2.83,0.52 0.67,0.4 0.76,1.04 1,0.36 1.59,-0.08 3.75,-2.07 1.86,-0.4 4.32,0.04 2,0.44 3.02,2.67 1.73,3.67 0.35,1.87 -0.92,2.87 0.46,2.07 0.94,1.59 1.73,1.16 3.72,0.32 2.94,1.12 1.3,-0.8 1.16,-3.47 0.81,-0.88 0.89,-0.44 4.18,1.04 7.5,-0.4 1.38,0.44 2,1.48 1.62,0.32 5.15,-1.12 2.08,-1.04 3.83,-2.83 1.62,-0.56 1.27,0.4 2.43,2.15 1.16,0.28 1.22,-0.2 1.51,-1.04 0.89,-1.16 1.08,-5.14 1.4,-2.03 1.59,-0.92 5.72,-0.16 0.51,-0.68 0.22,-1.67 2.62,-2.35 1.46,0 1.89,0.92 1.24,-0.4 2.48,-2.75 2.7,-1.32 2.59,-4.63 2.08,-1.56 1.97,-0.12 2.56,1.08 0.73,1.2 0.68,3.43 0.52,0.47 z"
            title="Aargau"
            stroke="black"
            fill="grey"
            id="CH-AG" />
</svg>