<?xml version="1.0" encoding="UTF-8"?>
<svg xmlns="http://www.w3.org/2000/svg" width="1708" height="1847" viewBox="0 0 1708 1847" shape-rendering="geometricPrecision" text-rendering="geometricPrecision" image-rendering="optimizeQuality" fill-rule="evenodd" clip-rule="evenodd">
  <defs>
    <style>.fil0,.fil1{fill:#fff;fill-rule:nonzero}.fil1{fill:#009fde}</style>
  </defs>
  <g id="Layer_x0020_1">
    <path class="fil0" d="M686 1355v-310H433V925h-40v163h253v267zM796 1355v-44h157v-266h300v43H993v267zM393 751v44h293V528h177v-43H646v266zM953 485v310h260v130h40V751H993V485z"></path>
    <path class="fil1" d="M784 485v-50L537 189l60-53 187 181V-3h79v320l184-180 57 55-241 243v50zM875 1355v50l248 245-61 54-187-182v320h-79v-320l-184 180-57-55 241-242v-50zM638 1088l-216 127-97 335-76-28 70-250-281 153-38-69 281-154-246-75 21-77 328 96 102-58zM1001 1088l216 127 97 335 76-28-69-250 281 153 37-69-281-154 247-75-22-77-328 96-102-58zM482 751l-63-35-337 89-16-79 251-70L41 494l40-68 276 162-62-250 77-21 87 331 178 103zM1158 751l63-35 337 89 16-79-251-70 276-162-40-68-276 162 62-250-77-21-86 331-179 103z"></path>
    <path class="fil0" d="M1235 1782c2 8 6 22 26 29 11 4 20 4 28 4 37 0 44-19 44-29 0-21-17-26-27-29l-49-13c-32-8-48-31-48-59 0-42 34-66 78-66 22 0 43 6 61 19 13 11 17 21 19 29l-38 10c-3-8-9-25-41-25-30 0-38 16-38 27 0 17 20 24 31 27l37 9c19 5 57 16 57 63 0 44-37 69-88 69-26 0-50-6-68-21-15-12-19-26-22-36l38-8zM1408 1844v-221h43v185h93v36zM1573 1844v-221h140v34h-99v61h78v33h-78v93z"></path>
  </g>
</svg>
